<?xml version="1.0" standalone="no"?>
<!DOCTYPE svg PUBLIC "-//W3C//DTD SVG 20010904//EN"
 "http://www.w3.org/TR/2001/REC-SVG-20010904/DTD/svg10.dtd">
<svg version="1.0" xmlns="http://www.w3.org/2000/svg"
 width="32.000000pt" height="32.000000pt" viewBox="0 0 32.000000 32.000000"
 preserveAspectRatio="xMidYMid meet">

<g transform="translate(0.000000,32.000000) scale(0.100000,-0.100000)"
fill="#000000" stroke="none">
<path d="M77 242 c-13 -14 -17 -39 -17 -105 l0 -87 30 0 30 0 0 80 0 80 30 0
c25 0 30 4 30 25 0 23 -4 25 -43 25 -30 0 -49 -6 -60 -18z"/>
<path d="M130 135 c0 -15 6 -25 14 -25 8 0 24 -13 36 -30 15 -22 30 -30 51
-30 16 0 29 3 29 6 0 3 -18 28 -41 55 -47 57 -89 68 -89 24z"/>
</g>
</svg>
